<svg data-v-3d00a856="" width="24" height="24" viewBox="0 0 24 24" fill="currentColor" xmlns="http://www.w3.org/2000/svg" className="plc-svgIcon sidebarFarmMenuItem__icon"><path fill-rule="evenodd" clip-rule="evenodd" d="M14.042 9.406a13.633 13.633 0 01-.724-.757 2.371 2.371 0 01-.475-.798 2.316 2.316 0 010-1.432c.101-.311.277-.565.475-.798.188-.221.457-.49.745-.778l.255-.255.255-.255c.287-.288.556-.557.778-.745.233-.198.487-.373.798-.475a2.315 2.315 0 011.431 0c.312.102.566.277.8.475.22.188.469.436.756.724l.276.276.276.276c.288.287.536.536.724.757.198.233.373.487.475.798.15.466.15.967 0 1.432a2.357 2.357 0 01-.476.798c-.187.222-.457.49-.744.778l-.255.255-.255.255a14.46 14.46 0 01-.778.745 2.366 2.366 0 01-.799.475 2.316 2.316 0 01-1.43 0c-.312-.101-.566-.277-.8-.475-.22-.188-.469-.436-.756-.724l-.276-.276-.276-.276zm4.533-1.07l-.255.255-.254.254c-.315.315-.519.518-.686.66-.16.136-.236.17-.276.184a.772.772 0 01-.478 0c-.04-.014-.116-.048-.276-.184a13.13 13.13 0 01-.686-.66l-.255-.254-.254-.255a13.109 13.109 0 01-.66-.686c-.136-.16-.17-.236-.183-.276a.772.772 0 010-.477c.013-.041.047-.117.183-.277.142-.167.345-.371.66-.686l.254-.254.255-.255c.315-.315.519-.518.686-.66.16-.136.236-.17.276-.183a.772.772 0 01.477 0c.041.013.117.047.277.183.167.142.371.345.686.66l.254.255.255.254c.315.315.518.519.66.686.136.16.17.236.183.277.05.155.05.322 0 .477-.013.04-.047.116-.183.276a12.86 12.86 0 01-.66.686zm-5.312 7.672c0-.407 0-.758.023-1.047.025-.305.08-.609.23-.901.221-.436.575-.79 1.011-1.012.292-.149.596-.204.9-.229.29-.023.67-.023 1.078-.023h.72c.407 0 .788 0 1.077.023.305.025.609.08.9.229.436.222.79.576 1.013 1.012.148.292.204.596.229.9.023.29.023.64.023 1.048v.78c0 .407 0 .758-.023 1.047-.025.305-.08.608-.23.9-.221.436-.576.79-1.011 1.013-.292.148-.596.203-.901.228-.29.024-.67.024-1.077.024h-.72c-.407 0-.788 0-1.077-.024a2.347 2.347 0 01-.9-.228 2.316 2.316 0 01-1.013-1.012c-.149-.293-.204-.596-.229-.901-.023-.29-.023-.64-.023-1.047v-.78zm3.962 2.448h-.72c-.445 0-.733 0-.951-.018-.21-.017-.288-.046-.326-.066a.772.772 0 01-.337-.337c-.02-.038-.049-.116-.066-.326a13.102 13.102 0 01-.018-.951v-.72c0-.445 0-.733.018-.952.017-.21.046-.287.066-.325a.772.772 0 01.337-.337c.038-.02.116-.049.326-.066.218-.018.506-.019.95-.019h.721c.445 0 .732.001.951.019.21.017.288.046.326.066a.772.772 0 01.337.337c.02.038.049.116.066.325.018.22.018.507.018.952v.72c0 .445 0 .732-.018.951-.017.21-.046.288-.066.326a.772.772 0 01-.337.337c-.038.02-.116.049-.326.066-.218.018-.506.018-.95.018zM4 6.745v.78c0 .407 0 .758.024 1.047.025.305.08.609.228.9.222.437.577.79 1.012 1.013.292.149.596.204.901.229.29.023.67.023 1.077.023h.72c.407 0 .788 0 1.077-.023.305-.025.609-.08.901-.23.436-.221.79-.575 1.012-1.011.149-.292.204-.596.229-.9.023-.29.023-.641.023-1.048v-.78c0-.407 0-.758-.023-1.047-.025-.305-.08-.609-.229-.9A2.316 2.316 0 009.94 3.784c-.292-.149-.596-.204-.9-.229-.29-.023-.67-.023-1.078-.023h-.72c-.407 0-.788 0-1.077.023-.305.025-.609.08-.9.23-.436.221-.79.576-1.013 1.011-.148.292-.203.596-.228.901C4 5.988 4 6.338 4 6.745zm3.602 2.448h.36c.445 0 .733 0 .952-.018.21-.017.287-.046.325-.066a.772.772 0 00.337-.337c.02-.038.049-.116.066-.326.018-.218.019-.506.019-.95v-.721c0-.445-.001-.733-.019-.951-.017-.21-.046-.288-.066-.326a.772.772 0 00-.337-.337c-.038-.02-.116-.049-.325-.066a13.132 13.132 0 00-.952-.018h-.72c-.445 0-.732 0-.951.018-.21.017-.288.046-.326.066a.772.772 0 00-.337.337c-.02.038-.049.116-.066.326-.018.218-.018.506-.018.95v.721c0 .445 0 .733.018.951.017.21.046.288.066.326a.772.772 0 00.337.337c.038.02.116.049.326.066.219.018.506.018.951.018h.36zM4 16.008c0-.407 0-.758.024-1.047.025-.305.08-.609.228-.901.222-.436.577-.79 1.012-1.012.292-.149.596-.204.901-.229.29-.023.67-.023 1.077-.023h.72c.407 0 .788 0 1.077.023.305.025.609.08.901.229.436.222.79.576 1.012 1.012.149.292.204.596.229.9.023.29.023.64.023 1.048v.78c0 .407 0 .758-.023 1.047-.025.305-.08.608-.229.9a2.32 2.32 0 01-1.012 1.013c-.292.148-.596.203-.9.228C8.75 20 8.37 20 7.961 20h-.72c-.407 0-.788 0-1.077-.024a2.347 2.347 0 01-.9-.228 2.316 2.316 0 01-1.013-1.012c-.148-.293-.203-.596-.228-.901C4 17.545 4 17.195 4 16.788v-.78zm3.962 2.448h-.72c-.445 0-.732 0-.951-.018-.21-.017-.288-.046-.326-.066a.772.772 0 01-.337-.337c-.02-.038-.049-.116-.066-.326a13.124 13.124 0 01-.018-.951v-.72c0-.445 0-.733.018-.952.017-.21.046-.287.066-.325a.772.772 0 01.337-.337c.038-.02.116-.049.326-.066.219-.018.506-.019.951-.019h.72c.445 0 .733.001.952.019.21.017.287.046.325.066a.772.772 0 01.337.337c.02.038.049.116.066.325.018.22.019.507.019.952v.72c0 .445-.001.732-.019.951-.017.21-.046.288-.066.326a.772.772 0 01-.337.337c-.038.02-.116.049-.325.066-.22.018-.507.018-.952.018z"></path></svg>