<svg width="24" height="24" fill="none" xmlns="http://www.w3.org/2000/svg"><path d="M12 24c6.627 0 12-5.373 12-12S18.627 0 12 0 0 5.373 0 12s5.373 12 12 12z" fill="#F0F0F0"/><path d="M2.48 4.695A11.956 11.956 0 00.413 8.87h6.243L2.48 4.695zM23.587 8.87a11.955 11.955 0 00-2.067-4.176L17.343 8.87h6.243zM.413 15.13a11.957 11.957 0 002.067 4.176l4.176-4.175H.413zM19.306 2.48A11.957 11.957 0 0015.13.415v6.242l4.176-4.175zM4.694 21.52a11.957 11.957 0 004.175 2.067v-6.243L4.694 21.52zM8.869.414A11.958 11.958 0 004.694 2.48l4.175 4.175V.414zm6.261 23.173a11.956 11.956 0 004.176-2.068l-4.176-4.175v6.243zm2.214-8.457l4.175 4.176a11.955 11.955 0 002.068-4.175h-6.243z" fill="#0052B4"/><path d="M23.898 10.435H13.565V.102a12.12 12.12 0 00-3.13 0v10.333H.102a12.12 12.12 0 000 3.13h10.333v10.333a12.12 12.12 0 003.13 0V13.565h10.333a12.12 12.12 0 000-3.13z" fill="#D80027"/><path d="M15.13 15.13l5.355 5.355c.246-.246.481-.503.705-.77l-4.584-4.585H15.13zm-6.26 0h-.001l-5.355 5.355c.246.246.504.481.77.706l4.585-4.585V15.13zm0-6.26L3.515 3.515c-.246.246-.481.503-.705.77L7.394 8.87H8.87zm6.26 0l5.355-5.355a12.023 12.023 0 00-.77-.706L15.13 7.394V8.87z" fill="#D80027"/></svg>