<svg data-v-3d00a856="" xmlns="http://www.w3.org/2000/svg" width="24" height="24" fill="currentColor" viewBox="0 0 24 24" className="plc-svgIcon sidebarFarmMenuItem__icon"><path fill-rule="evenodd" d="M3.392 17.624a.818.818 0 01-.39-.751.819.819 0 01.146-.414l3.682-5.263a5.728 5.728 0 1110.338 0l3.684 5.26a.819.819 0 01-.67 1.286h-2.634l-.664 2.654a.817.817 0 01-1.487.235l-3.398-5.436-3.397 5.436a.818.818 0 01-1.488-.235l-.664-2.654H3.816a.819.819 0 01-.424-.118zm13.517-1.518h1.701l-2.426-3.467a5.721 5.721 0 01-2.816 1.658l2.395 3.833.352-1.405a.819.819 0 01.794-.62zM14.272 5.339a4.091 4.091 0 10-4.546 6.804 4.091 4.091 0 004.546-6.804zm-3.642 8.958a5.72 5.72 0 01-2.816-1.658l-2.426 3.467H7.09a.818.818 0 01.794.62l.352 1.404 2.395-3.833zm3.006-5.556a1.637 1.637 0 11-3.273 0 1.637 1.637 0 013.273 0z" clip-rule="evenodd"></path></svg>