<svg width="203" height="20" fill="none" xmlns="http://www.w3.org/2000/svg"><path d="M107.543.3h4.926l1.705 6.025L115.908.3h4.925l-3.219 9.327 1.403 4.072 4.21-13.4h5.833l-7.649 19.536h-4.457l-2.78-6.989-2.751 6.99h-4.457L99.316.3h5.806l4.237 13.4 1.349-4.073L107.543.3ZM138.424 20c-1.486 0-2.834-.284-4.045-.853a10.127 10.127 0 0 1-3.109-2.228c-.862-.936-1.532-2-2.008-3.192a9.84 9.84 0 0 1-.716-3.687c0-1.284.248-2.522.743-3.715a9.805 9.805 0 0 1 2.064-3.136 10.02 10.02 0 0 1 3.164-2.174c1.229-.55 2.568-.826 4.017-.826 1.486 0 2.834.285 4.045.853a9.904 9.904 0 0 1 3.109 2.257c.862.935 1.522 2 1.981 3.191a9.77 9.77 0 0 1 .715 3.66 9.596 9.596 0 0 1-.742 3.714 10.26 10.26 0 0 1-2.064 3.137c-.881.899-1.935 1.623-3.164 2.174-1.211.55-2.541.825-3.99.825Zm-4.43-9.905c0 .66.092 1.302.275 1.926.184.605.459 1.146.826 1.623.367.477.825.862 1.375 1.156.569.293 1.239.44 2.009.44.77 0 1.44-.147 2.009-.44a4.13 4.13 0 0 0 1.375-1.183 4.89 4.89 0 0 0 .798-1.679 6.676 6.676 0 0 0 .275-1.898c0-.66-.091-1.293-.275-1.899a4.417 4.417 0 0 0-.853-1.623 3.85 3.85 0 0 0-1.403-1.128c-.55-.294-1.201-.44-1.953-.44-.771 0-1.44.146-2.009.44a4.082 4.082 0 0 0-1.376 1.183 4.974 4.974 0 0 0-.825 1.65 7.083 7.083 0 0 0-.248 1.872ZM150.659 19.835V.3h8.969c.954 0 1.835.201 2.642.605a6.401 6.401 0 0 1 2.063 1.54 6.847 6.847 0 0 1 1.376 2.174 6.42 6.42 0 0 1 .495 2.45 7.041 7.041 0 0 1-.742 3.19 6.52 6.52 0 0 1-2.064 2.395l4.127 7.181h-6.053l-3.439-5.998h-2.009v5.998h-5.365Zm5.365-10.676h3.384c.33 0 .633-.183.908-.55.294-.367.441-.88.441-1.54 0-.68-.166-1.193-.496-1.542-.33-.367-.66-.55-.99-.55h-3.247V9.16ZM169.226 19.835V.3h5.365v14.858h8.86v4.677h-14.225ZM185.321 19.835V.3h7.512c1.614 0 3.035.256 4.264.77s2.257 1.21 3.082 2.091a8.752 8.752 0 0 1 1.871 3.11c.422 1.173.633 2.43.633 3.769 0 1.486-.239 2.834-.715 4.045a8.728 8.728 0 0 1-1.982 3.081c-.862.844-1.898 1.504-3.109 1.981-1.21.459-2.559.688-4.044.688h-7.512Zm11.914-9.795a6.67 6.67 0 0 0-.303-2.064 4.492 4.492 0 0 0-.88-1.596 3.653 3.653 0 0 0-1.376-1.018 4.306 4.306 0 0 0-1.843-.385h-2.147v10.18h2.147c.697 0 1.32-.128 1.871-.385a3.783 3.783 0 0 0 1.375-1.073c.386-.458.67-1 .853-1.623a6.574 6.574 0 0 0 .303-2.036Z" fill="#21BEE8"/><path d="M19.785 19.536V0h5.366v14.858h8.86v4.678H19.784ZM40.943 0h4.898l6.768 19.536h-5.448l-1.183-3.825h-5.2l-1.156 3.825h-5.475L40.943 0Zm4.182 12.134-1.733-6.053-1.816 6.053h3.55ZM67.648 4.678h-5.613v14.858H56.67V4.678h-5.64V0h16.618v4.678ZM69.602 19.536V0h5.366v19.536h-5.366ZM83.7 9.933v9.603h-5.365V0h4.182l7.842 9.933V0h5.366v19.536H91.46L83.7 9.933Z" fill="#333"/><path fill-rule="evenodd" clip-rule="evenodd" d="M15.848 10.491H5.528V.19h4.847c.937 0 1.8.199 2.6.582.793.39 1.473.892 2.042 1.523a7.159 7.159 0 0 1 1.337 2.155c.325.81.487 1.622.487 2.439 0 .854-.156 1.684-.462 2.495-.15.39-.325.761-.531 1.108Zm-4.854-5.237c-.325-.285-.65-.434-.975-.434H7.37v4.142h2.787c.325 0 .624-.155.905-.452.282-.303.42-.842.42-1.622 0-.799-.163-1.343-.488-1.634Zm-7.046 6.803v7.479H2.105v-5.944H0v-1.535h3.948Zm0-1.566V.19H2.105v8.773H0v1.53h3.948Zm1.58 9.045v-7.473h9.046a6.19 6.19 0 0 1-1.481.978c-.781.372-1.643.558-2.58.558H7.377v5.937h-1.85Z" fill="#333"/></svg>
