<svg data-v-79fd92ed="" width="24" height="24" viewBox="0 0 24 24" fill="currentColor" xmlns="http://www.w3.org/2000/svg" className="plc-svgIcon"><path d="M8.85 12.9a2.25 2.25 0 012.25 2.25v3.6A2.25 2.25 0 018.85 21h-3.6A2.25 2.25 0 013 18.75v-3.6a2.25 2.25 0 012.25-2.25h3.6zm11.25 5.4a.45.45 0 01.45.45v1.35a.45.45 0 01-.45.45h-1.35a.45.45 0 01-.45-.45v-1.35a.45.45 0 01.45-.45h1.35zm-4.95 0a.45.45 0 01.45.45v1.35a.45.45 0 01-.45.45H13.8a.45.45 0 01-.45-.45v-1.35a.45.45 0 01.45-.45h1.35zm-6.525-3.825h-3.15a.9.9 0 00-.9.9v3.15a.9.9 0 00.9.9h3.15a.9.9 0 00.9-.9v-3.15a.9.9 0 00-.9-.9zm9 1.35a.45.45 0 01.45.45v1.35a.45.45 0 01-.45.45h-1.35a.45.45 0 01-.45-.45v-1.35a.45.45 0 01.45-.45h1.35zm-9.9 0a.45.45 0 01.45.45v1.35a.45.45 0 01-.45.45h-1.35a.45.45 0 01-.45-.45v-1.35a.45.45 0 01.45-.45h1.35zM20.1 13.35a.45.45 0 01.45.45v1.35a.45.45 0 01-.45.45h-1.35a.45.45 0 01-.45-.45V13.8a.45.45 0 01.45-.45h1.35zm-4.95 0a.45.45 0 01.45.45v1.35a.45.45 0 01-.45.45H13.8a.45.45 0 01-.45-.45V13.8a.45.45 0 01.45-.45h1.35zM18.75 3A2.25 2.25 0 0121 5.25v3.6a2.25 2.25 0 01-2.25 2.25h-3.6a2.25 2.25 0 01-2.25-2.25v-3.6A2.25 2.25 0 0115.15 3h3.6zm-9.9 0a2.25 2.25 0 012.25 2.25v3.6a2.25 2.25 0 01-2.25 2.25h-3.6A2.25 2.25 0 013 8.85v-3.6A2.25 2.25 0 015.25 3h3.6zm9.675 1.575h-3.15a.9.9 0 00-.9.9v3.15a.9.9 0 00.9.9h3.15a.9.9 0 00.9-.9v-3.15a.9.9 0 00-.9-.9zm-9.9 0h-3.15a.9.9 0 00-.9.9v3.15a.9.9 0 00.9.9h3.15a.9.9 0 00.9-.9v-3.15a.9.9 0 00-.9-.9zm9 1.35a.45.45 0 01.45.45v1.35a.45.45 0 01-.45.45h-1.35a.45.45 0 01-.45-.45v-1.35a.45.45 0 01.45-.45h1.35zm-9.9 0a.45.45 0 01.45.45v1.35a.45.45 0 01-.45.45h-1.35a.45.45 0 01-.45-.45v-1.35a.45.45 0 01.45-.45h1.35z"></path></svg>