<svg xmlns="http://www.w3.org/2000/svg" viewBox="0 0 32 32"><defs><style>.cls-1{fill:#231f20;}</style></defs><g id="packard_bell" data-name="packard bell"><path className="cls-1" d="M27,25.71a22.42,22.42,0,0,1-1-6.52V15a11.62,11.62,0,0,0-.81-4.31,1,1,0,0,0-1.86.72A9.7,9.7,0,0,1,24,15v4.24A24.56,24.56,0,0,0,24.69,25H7.31A24.56,24.56,0,0,0,8,19.19V15C8,10,11.59,6,16,6a7.57,7.57,0,0,1,5.3,2.24,1,1,0,1,0,1.4-1.42A9.57,9.57,0,0,0,17,4.06V3a1,1,0,0,0-2,0V4.06C10,4.61,6,9.28,6,15v4.24a22.42,22.42,0,0,1-1,6.52,1,1,0,0,0,.16.89A1,1,0,0,0,6,27h5.14A4,4,0,0,0,15,30h2a4,4,0,0,0,3.86-3H26a1,1,0,0,0,.8-.4A1,1,0,0,0,27,25.71ZM17,28H15a2,2,0,0,1-1.73-1h5.46A2,2,0,0,1,17,28Z"/></g></svg>